<svg width="243" height="265" viewBox="0 0 243 265" fill="none" xmlns="http://www.w3.org/2000/svg">
<g id="flowers">
<g id="flower-petals">
<path id="Vector" d="M159.617 169.901C174.583 169.901 186.716 157.758 186.716 142.78C186.716 127.802 174.583 115.659 159.617 115.659C144.651 115.659 132.519 127.802 132.519 142.78C132.519 157.758 144.651 169.901 159.617 169.901Z" fill="#6C63FF"/>
<path id="Vector_2" d="M46.0984 115.451C61.0644 115.451 73.1968 103.308 73.1968 88.3299C73.1968 73.3516 61.0644 61.2092 46.0984 61.2092C31.1324 61.2092 19 73.3516 19 88.3299C19 103.308 31.1324 115.451 46.0984 115.451Z" fill="#6C63FF"/>
<path id="Vector_3" d="M104.374 55.2414C119.34 55.2414 131.472 43.099 131.472 28.1207C131.472 13.1423 119.34 1 104.374 1C89.4075 1 77.2751 13.1423 77.2751 28.1207C77.2751 43.099 89.4075 55.2414 104.374 55.2414Z" fill="#6C63FF"/>
</g>
<g id="FlowerPot">
<g id="Group 9">
<path id="Vector_4" d="M160.008 192.422L160.23 143.226" stroke="#3F3D56" stroke-width="2" stroke-miterlimit="10"/>
<path id="Vector_5" d="M160.231 150.183C164.07 150.183 167.182 147.068 167.182 143.226C167.182 139.384 164.07 136.269 160.231 136.269C156.391 136.269 153.279 139.384 153.279 143.226C153.279 147.068 156.391 150.183 160.231 150.183Z" fill="#3F3D56"/>
<path id="Vector_6" d="M160.093 173.546C160.093 173.546 159.197 152.166 138.829 154.559Z" fill="#3F3D56"/>
<path id="Vector_7" d="M45.2007 189.048L46.7603 88.8954" stroke="#3F3D56" stroke-width="2" stroke-miterlimit="10"/>
<path id="Vector_8" d="M46.7601 95.8524C50.5992 95.8524 53.7114 92.7377 53.7114 88.8955C53.7114 85.0532 50.5992 81.9385 46.7601 81.9385C42.921 81.9385 39.8088 85.0532 39.8088 88.8955C39.8088 92.7377 42.921 95.8524 46.7601 95.8524Z" fill="#3F3D56"/>
<path id="Vector_9" d="M46.319 117.225C46.319 117.225 45.6589 95.8361 25.2654 98.0029Z" fill="#3F3D56"/>
<path id="Vector_10" d="M45.2305 187.136C45.2305 187.136 50.3387 146.105 24.5537 143.715" stroke="#3F3D56" stroke-width="2" stroke-miterlimit="10"/>
<path id="Vector_11" d="M24.5538 150.672C28.3929 150.672 31.5051 147.557 31.5051 143.715C31.5051 139.872 28.3929 136.758 24.5538 136.758C20.7147 136.758 17.6025 139.872 17.6025 143.715C17.6025 147.557 20.7147 150.672 24.5538 150.672Z" fill="#3F3D56"/>
<path id="Vector_12" d="M105.027 192.91V28.8158" stroke="#3F3D56" stroke-width="2" stroke-miterlimit="10"/>
<path id="Vector_13" d="M105.027 35.695C108.866 35.695 111.978 32.5802 111.978 28.738C111.978 24.8958 108.866 21.781 105.027 21.781C101.188 21.781 98.0759 24.8958 98.0759 28.738C98.0759 32.5802 101.188 35.695 105.027 35.695Z" fill="#3F3D56"/>
<path id="Vector_14" d="M83.6766 154.418C87.5157 154.418 90.6279 151.303 90.6279 147.461C90.6279 143.619 87.5157 140.504 83.6766 140.504C79.8375 140.504 76.7253 143.619 76.7253 147.461C76.7253 151.303 79.8375 154.418 83.6766 154.418Z" fill="#3F3D56"/>
<path id="Vector_15" d="M105.027 64.2746C105.027 64.2746 104.034 42.8989 83.6768 45.3836Z" fill="#3F3D56"/>
<path id="Vector_16" d="M105.027 124.872C105.027 124.872 104.034 103.497 83.6768 105.981Z" fill="#3F3D56"/>
<path id="Vector_17" d="M105.027 190.998C105.027 190.998 109.496 149.449 83.6768 147.461" stroke="#3F3D56" stroke-width="2" stroke-miterlimit="10"/>
<path id="Vector_18" d="M126.804 89.159C130.643 89.159 133.755 86.0442 133.755 82.202C133.755 78.3597 130.643 75.245 126.804 75.245C122.965 75.245 119.853 78.3597 119.853 82.202C119.853 86.0442 122.965 89.159 126.804 89.159Z" fill="#3F3D56"/>
<path id="Vector_19" d="M105.453 123.522C105.453 123.522 100.985 84.1897 126.804 82.202" stroke="#3F3D56" stroke-width="2" stroke-miterlimit="10"/>
<path id="Vector_20" d="M162.983 66.4877C161.056 66.4877 159.172 65.9158 157.57 64.8443C155.967 63.7727 154.718 62.2498 153.981 60.4679C153.243 58.686 153.051 56.7253 153.426 54.8337C153.802 52.9421 154.73 51.2046 156.093 49.8408C157.456 48.477 159.192 47.5483 161.082 47.172C162.972 46.7957 164.931 46.9888 166.711 47.7269C168.492 48.465 170.014 49.7149 171.084 51.3185C172.155 52.9221 172.726 54.8075 172.726 56.7362C172.723 59.3215 171.696 61.8002 169.869 63.6283C168.043 65.4564 165.566 66.4848 162.983 66.4877V66.4877ZM162.983 47.8711C161.231 47.8711 159.518 48.391 158.062 49.3652C156.605 50.3393 155.47 51.7238 154.799 53.3437C154.129 54.9635 153.953 56.746 154.295 58.4656C154.637 60.1853 155.481 61.7649 156.719 63.0047C157.958 64.2445 159.536 65.0888 161.255 65.4308C162.973 65.7729 164.754 65.5974 166.373 64.9264C167.991 64.2554 169.374 63.1192 170.348 61.6613C171.321 60.2035 171.841 58.4895 171.841 56.7362C171.838 54.3858 170.904 52.1325 169.243 50.4706C167.583 48.8087 165.331 47.8738 162.983 47.8711Z" fill="#3F3D56"/>
<path id="Vector_21" d="M9.74354 19.5031C7.81645 19.5031 5.93264 18.9312 4.33032 17.8596C2.72801 16.7881 1.47915 15.2652 0.741685 13.4833C0.00422049 11.7014 -0.188732 9.74072 0.187224 7.84911C0.56318 5.9575 1.49116 4.21994 2.85382 2.85616C4.21648 1.49239 5.95261 0.563642 7.84267 0.187377C9.73273 -0.188888 11.6918 0.00422644 13.4722 0.742297C15.2526 1.48037 16.7743 2.73024 17.845 4.33388C18.9156 5.93751 19.4871 7.82287 19.4871 9.75154C19.4841 12.3369 18.4567 14.8156 16.63 16.6437C14.8034 18.4718 12.3268 19.5002 9.74354 19.5031V19.5031ZM9.74354 0.886508C7.99164 0.886508 6.27908 1.40643 4.82243 2.38053C3.36578 3.35464 2.23046 4.73916 1.56004 6.35904C0.889614 7.97891 0.714204 9.76138 1.05598 11.481C1.39776 13.2007 2.24138 14.7803 3.48016 16.0201C4.71894 17.2599 6.29724 18.1042 8.01547 18.4462C9.73371 18.7883 11.5147 18.6127 13.1332 17.9418C14.7518 17.2708 16.1352 16.1345 17.1085 14.6767C18.0818 13.2188 18.6013 11.5049 18.6013 9.75154C18.5986 7.40121 17.6645 5.14792 16.0039 3.48598C14.3434 1.82405 12.0919 0.889196 9.74354 0.886508V0.886508Z" fill="#3F3D56"/>
<path id="Vector_22" d="M232.516 164.003C230.589 164.003 228.705 163.431 227.103 162.36C225.5 161.288 224.252 159.765 223.514 157.983C222.777 156.201 222.584 154.241 222.96 152.349C223.336 150.457 224.264 148.72 225.626 147.356C226.989 145.992 228.725 145.064 230.615 144.687C232.505 144.311 234.464 144.504 236.245 145.242C238.025 145.98 239.547 147.23 240.617 148.834C241.688 150.438 242.26 152.323 242.26 154.252C242.257 156.837 241.229 159.316 239.402 161.144C237.576 162.972 235.099 164 232.516 164.003ZM232.516 145.387C230.764 145.387 229.052 145.906 227.595 146.881C226.138 147.855 225.003 149.239 224.332 150.859C223.662 152.479 223.487 154.261 223.828 155.981C224.17 157.701 225.014 159.28 226.253 160.52C227.491 161.76 229.07 162.604 230.788 162.946C232.506 163.288 234.287 163.113 235.906 162.442C237.524 161.771 238.908 160.635 239.881 159.177C240.854 157.719 241.374 156.005 241.374 154.252C241.371 151.901 240.437 149.648 238.776 147.986C237.116 146.324 234.864 145.389 232.516 145.387V145.387Z" fill="#3F3D56"/>
<path id="Vector_23" d="M191.328 87.7638C194.507 87.7638 197.085 85.1839 197.085 82.0015C197.085 78.8191 194.507 76.2393 191.328 76.2393C188.148 76.2393 185.57 78.8191 185.57 82.0015C185.57 85.1839 188.148 87.7638 191.328 87.7638Z" fill="#3F3D56"/>
<path id="Vector_24" d="M105.407 273.486C152.86 273.486 191.327 234.987 191.327 187.495H19.4871C19.4871 234.987 57.9548 273.486 105.407 273.486Z" fill="#6C63FF"/>
</g>
</g>
</g>
</svg>
