<svg width="168" height="169" viewBox="0 0 168 169" fill="none" xmlns="http://www.w3.org/2000/svg">
<path d="M140.617 168.901C155.583 168.901 167.716 156.758 167.716 141.78C167.716 126.802 155.583 114.659 140.617 114.659C125.651 114.659 113.519 126.802 113.519 141.78C113.519 156.758 125.651 168.901 140.617 168.901Z" fill="#6C63FF"/>
<path d="M27.0984 114.451C42.0644 114.451 54.1968 102.308 54.1968 87.3299C54.1968 72.3516 42.0644 60.2092 27.0984 60.2092C12.1324 60.2092 0 72.3516 0 87.3299C0 102.308 12.1324 114.451 27.0984 114.451Z" fill="#6C63FF"/>
<path d="M85.3735 54.2414C100.34 54.2414 112.472 42.099 112.472 27.1207C112.472 12.1423 100.34 0 85.3735 0C70.4075 0 58.2751 12.1423 58.2751 27.1207C58.2751 42.099 70.4075 54.2414 85.3735 54.2414Z" fill="#6C63FF"/>
</svg>
