<svg width="610" height="153" viewBox="0 0 610 153" fill="none" xmlns="http://www.w3.org/2000/svg">
<g id="feedfixbox">
<rect id="Rectangle 12" x="0.236816" y="74.8074" width="603.769" height="78.7997" transform="rotate(-7.11728 0.236816 74.8074)" fill="#151616"/>
<path id="If you feed &#226;&#128;&#152;em, fix &#226;&#128;&#152;em" d="M61.8003 119.682L61.1719 115.214L57.916 90.1285L57.3828 85.6479L53.0035 86.2163L53.6319 90.6846L56.8879 115.77L57.421 120.251L61.8003 119.682ZM64.8643 98.4716L69.5291 97.8661L71.6483 114.193L72.1382 118.341L76.3271 117.797L75.742 113.662L73.6228 97.3347L79.4301 96.581L79.0038 93.2965L73.1965 94.0503L72.7825 90.861C72.4242 88.1002 72.8762 86.7347 75.4942 86.3949C76.4938 86.2651 77.4706 86.3319 78.1079 86.3944L77.6693 83.0148C77.0795 82.9461 76.198 82.8669 74.8652 83.0399C70.9619 83.5465 67.9042 85.3471 68.7074 91.5352L69.1028 94.5816L64.438 95.1871L64.8643 98.4716ZM90.2814 91.8328L103.625 114.835L103.304 116.086C102.327 119.747 100.943 121.765 97.3253 122.235C96.4208 122.352 95.3965 122.292 94.7592 122.229L95.1917 125.561C95.7752 125.582 96.6629 125.709 97.9957 125.536C101.899 125.03 105.319 123.037 106.527 117.798L113.177 88.861L108.941 89.4108L104.787 109.989L104.692 110.001L94.7559 91.252L90.2814 91.8328ZM131.185 111.354C138.563 110.397 142.503 103.835 141.651 97.266C140.792 90.6495 135.307 85.311 127.929 86.2687C120.551 87.2263 116.611 93.788 117.469 100.405C118.322 106.973 123.807 112.312 131.185 111.354ZM130.74 107.927C126.456 108.483 122.501 105.608 121.753 99.8485C121.006 94.0888 124.09 90.252 128.374 89.6959C132.61 89.146 136.619 92.0623 137.367 97.822C138.114 103.582 134.977 107.377 130.74 107.927ZM146.03 84.5969L146.615 88.732L147.999 99.3946C148.814 105.678 152.436 108.596 157.577 107.929C161.956 107.36 164.414 104.67 165.86 102.013L165.956 102.001L166.487 106.095L170.533 105.569L169.942 101.387L167.94 85.9641L167.45 81.8167L163.261 82.3604L163.846 86.4954L165.317 97.8244C163.916 101.201 161.064 103.846 157.685 104.285C154.4 104.711 152.599 102.766 152.043 98.4824L150.708 88.2007L150.219 84.0532L146.03 84.5969ZM183.587 83.0619L188.252 82.4565L190.371 98.7835L190.861 102.931L195.05 102.387L194.465 98.2522L192.346 81.9251L198.153 81.1714L197.727 77.8869L191.919 78.6407L191.505 75.4514C191.147 72.6906 191.599 71.325 194.217 70.9852C195.217 70.8555 196.193 70.9223 196.831 70.9848L196.392 67.6052C195.802 67.5365 194.921 67.4573 193.588 67.6303C189.685 68.1369 186.627 69.9375 187.43 76.1256L187.826 79.172L183.161 79.7775L183.587 83.0619ZM223.032 92.4146C222.263 93.5792 219.43 96.367 215.765 96.8428C210.815 97.4853 207.145 94.5734 206.449 89.5815L225.156 87.1534C224.587 80.1605 220.624 74.2373 212.246 75.3247C205.582 76.1897 201.179 81.7951 202.235 89.9348C203.242 97.6937 208.838 101.275 215.883 100.361C221.881 99.5824 225.089 95.5842 225.768 94.4796L223.032 92.4146ZM212.828 78.6858C216.778 78.173 219.79 80.4927 220.321 84.5863L206.279 86.409C206.471 81.5439 209.067 79.1739 212.828 78.6858ZM250.783 88.8126C250.015 89.9772 247.182 92.765 243.517 93.2408C238.566 93.8833 234.897 90.9714 234.201 85.9795L252.908 83.5514C252.339 76.5584 248.375 70.6353 239.998 71.7227C233.334 72.5877 228.931 78.193 229.987 86.3328C230.994 94.0917 236.59 97.6732 243.635 96.7589C249.632 95.9804 252.84 91.9822 253.52 90.8776L250.783 88.8126ZM240.579 75.0838C244.53 74.571 247.542 76.8907 248.073 80.9843L234.031 82.8069C234.222 77.9418 236.819 75.5719 240.579 75.0838ZM270.148 93.3175C274.528 92.7491 276.497 90.0249 277.484 87.1862L277.58 87.1739L278.154 91.6007L282.153 91.0818L281.574 86.9943L278.231 61.2423L277.735 57.0473L273.546 57.5909L274.137 61.7736L275.466 72.0078L275.371 72.0201C273.836 69.8959 271.367 67.6511 266.893 68.2319C260.704 69.0351 256.682 74.591 257.664 82.1595C258.653 89.7757 263.96 94.1207 270.148 93.3175ZM267.861 71.5912C272.097 71.0413 275.837 73.7505 276.603 79.653L276.628 79.8434C277.444 86.1267 274.083 89.3218 270.18 89.8284C265.61 90.4216 262.647 86.9824 261.942 81.5559C261.219 75.9866 263.386 72.172 267.861 71.5912ZM302.6 60.1123L300.125 60.4335L301.606 53.9489L298.988 54.2887L297.078 60.8289L297.764 66.1126L303.286 65.3959L302.6 60.1123ZM329.947 78.5375C329.179 79.7021 326.346 82.4899 322.681 82.9657C317.73 83.6082 314.061 80.6963 313.365 75.7044L332.072 73.2763C331.503 66.2833 327.54 60.3602 319.162 61.4476C312.498 62.3126 308.095 67.918 309.151 76.0577C310.158 83.8166 315.754 87.3982 322.799 86.4838C328.796 85.7053 332.004 81.7071 332.684 80.6025L329.947 78.5375ZM319.743 64.8087C323.694 64.2959 326.706 66.6156 327.237 70.7092L313.195 72.5318C313.386 67.6667 315.983 65.2968 319.743 64.8087ZM360.031 80.9735L359.446 76.8384L357.964 65.4142C359.133 62.1163 361.467 59.5869 364.323 59.2162C367.702 58.7775 369.497 60.6742 370.06 65.0059L371.394 75.2876L371.884 79.4351L376.073 78.8914L375.488 74.7563L374.104 64.0937C373.288 57.8105 369.667 54.8924 364.526 55.5596C360.289 56.1095 358.065 59.1088 356.904 61.7279L356.809 61.7403C354.934 58.1114 351.769 57.2154 348.484 57.6417C344.724 58.1298 342.587 60.6821 341.36 63.1647L341.265 63.177L340.764 59.3214L336.718 59.8465L337.309 64.0292L339.311 79.4518L339.801 83.5993L343.99 83.0556L343.405 78.9205L341.922 67.4963C343.091 64.1984 345.425 61.669 348.281 61.2983C351.661 60.8596 353.456 62.7563 354.018 67.088L355.353 77.3697L355.843 81.5172L360.031 80.9735ZM383.544 77.9217L385.924 77.6128L382.823 85.4209L385.631 85.0564L389.113 77.1989L388.427 71.9152L382.858 72.6381L383.544 77.9217ZM402.021 54.7104L406.685 54.1049L408.805 70.432L409.294 74.5794L413.483 74.0357L412.898 69.9006L410.779 53.5736L416.586 52.8198L416.16 49.5354L410.353 50.2891L409.939 47.0999C409.58 44.339 410.032 42.9735 412.65 42.6337C413.65 42.5039 414.627 42.5708 415.264 42.6333L414.826 39.2536C414.236 39.185 413.354 39.1058 412.021 39.2788C408.118 39.7854 405.06 41.5859 405.864 47.774L406.259 50.8205L401.594 51.4259L402.021 54.7104ZM428.267 72.1168L427.682 67.9817L425.681 52.5591L425.184 48.364L420.996 48.9077L421.587 53.0904L423.589 68.5131L424.079 72.6605L428.267 72.1168ZM424.488 43.3721L423.802 38.0885L419.709 38.6198L420.394 43.9035L424.488 43.3721ZM451.401 69.1141L456.304 68.4778L456.292 68.3826L445.379 57.0208L452.044 44.9747L452.031 44.8795L447.462 45.4726L442.636 54.9082L435.704 46.9986L430.849 47.6288L430.861 47.724L440.507 57.8951L433.015 71.4038L433.028 71.499L437.597 70.9059L443.243 59.9601L451.401 69.1141ZM473.712 37.9028L471.236 38.2241L472.718 31.7395L470.1 32.0793L468.19 38.6195L468.876 43.9032L474.397 43.1865L473.712 37.9028ZM501.059 56.3281C500.29 57.4927 497.458 60.2805 493.792 60.7563C488.842 61.3988 485.173 58.4869 484.476 53.495L503.183 51.0669C502.614 44.0739 498.651 38.1508 490.273 39.2382C483.609 40.1032 479.206 45.7085 480.263 53.8483C481.27 61.6072 486.865 65.1887 493.91 64.2744C499.908 63.4959 503.116 59.4977 503.795 58.393L501.059 56.3281ZM490.855 42.5993C494.806 42.0865 497.817 44.4062 498.349 48.4998L484.306 50.3224C484.498 45.4573 487.094 43.0874 490.855 42.5993ZM531.143 58.7641L530.558 54.629L529.075 43.2048C530.244 39.9069 532.578 37.3775 535.434 37.0068C538.814 36.5681 540.609 38.4648 541.171 42.7965L542.506 53.0782L542.996 57.2257L547.184 56.682L546.599 52.5469L545.215 41.8843C544.4 35.601 540.778 32.6829 535.637 33.3502C531.401 33.9001 529.176 36.8993 528.016 39.5185L527.921 39.5309C526.046 35.902 522.88 35.006 519.596 35.4323C515.835 35.9204 513.698 38.4727 512.471 40.9553L512.376 40.9676L511.876 37.112L507.83 37.6371L508.421 41.8198L510.423 57.2424L510.913 61.3899L515.102 60.8462L514.516 56.7111L513.034 45.2869C514.203 41.989 516.537 39.4595 519.393 39.0888C522.772 38.6502 524.567 40.5469 525.13 44.8786L526.464 55.1603L526.954 59.3078L531.143 58.7641Z" fill="white"/>
</g>
</svg>
