<svg width="393" height="215" viewBox="0 0 393 215" fill="none" xmlns="http://www.w3.org/2000/svg">
<rect width="374.195" height="89.1116" transform="matrix(0.997718 0.0675142 -0.0395343 0.999218 19.5229 0)" fill="#0B0B0B"/>
<rect width="374.195" height="89.1116" transform="matrix(0.997718 0.0675142 -0.0395343 0.999218 19.5229 0)" stroke="black"/>
<rect width="230.312" height="89.1369" transform="matrix(0.998882 -0.047269 0.0276581 0.999617 60 125.887)" fill="#0B0B0B"/>
<rect width="230.312" height="89.1369" transform="matrix(0.998882 -0.047269 0.0276581 0.999617 60 125.887)" stroke="black"/>
<path d="M110.763 60.3855L110.918 58.1347L111.923 45.5267L112.127 43.2798L109.926 43.1043L109.77 45.3551L108.765 57.9631L108.562 60.21L110.763 60.3855ZM126.647 51.9491L118.657 51.3121L119.101 45.7378L128.599 46.495L128.75 44.605L117.075 43.6742L116.919 45.925L115.914 58.533L115.711 60.78L117.912 60.9554L118.067 58.7047L118.508 53.1782L126.499 53.8152L126.647 51.9491ZM139.461 62.6733L141.662 62.8488L141.817 60.598L142.204 55.7414L149.72 46.3249L149.724 46.2771L147.236 46.0787L141.368 53.845L136.829 45.2491L134.126 45.0336L134.122 45.0814L140.051 55.5698L139.664 60.4264L139.461 62.6733ZM157.224 64.5469C162.583 64.9741 165.946 61.1492 166.34 56.1969C166.733 51.2686 164.019 46.9592 158.66 46.532C153.301 46.1048 149.963 49.9316 149.57 54.8599C149.175 59.8122 151.865 64.1196 157.224 64.5469ZM157.377 62.6329C154.027 62.3659 151.548 59.6403 151.914 55.0468C152.278 50.4773 155.158 48.1789 158.508 48.4459C161.881 48.7149 164.336 51.4386 163.972 56.0081C163.606 60.6015 160.75 62.9019 157.377 62.6329ZM172.682 48.1073L170.433 47.928L170.275 50.2027L169.596 58.7196C169.438 60.7053 169.64 62.4067 170.851 63.8275C171.841 64.9899 173.554 65.8487 176.019 66.0452C178.483 66.2416 180.31 65.665 181.473 64.6743C182.87 63.4614 183.362 61.8154 183.52 59.8297L184.199 51.3127L184.404 49.0418L182.156 48.8625L181.998 51.1372L181.295 59.9652C181.193 61.2332 180.817 62.3347 179.887 63.1273C179.06 63.8319 177.798 64.2609 176.171 64.1312C174.52 63.9996 173.366 63.378 172.662 62.5514C171.845 61.6195 171.672 60.4741 171.773 59.2061L172.476 50.3781L172.682 48.1073ZM204.144 58.1272L196.153 57.4902L196.597 51.9158L206.095 52.673L206.246 50.783L194.571 49.8523L194.416 52.1031L193.411 64.7111L193.207 66.958L195.408 67.1335L195.564 64.8827L196.004 59.3562L203.995 59.9933L204.144 58.1272ZM219.433 59.3461L211.012 58.6747L211.457 53.1004L221.864 53.9301L222.014 52.0401L209.43 51.0369L209.275 53.2876L208.27 65.8956L208.066 68.1426L220.651 69.1458L220.801 67.2558L210.394 66.4261L210.863 60.5408L219.285 61.2122L219.433 59.3461ZM235.437 60.6219L227.016 59.9506L227.46 54.3763L237.867 55.2059L238.018 53.3159L225.434 52.3127L225.279 54.5635L224.274 67.1715L224.07 69.4184L236.654 70.4216L236.805 68.5316L226.398 67.702L226.867 61.8167L235.289 62.488L235.437 60.6219ZM241.283 55.8393L240.277 68.4473L240.074 70.6943L245.649 71.1387C249.668 71.4591 255.084 70.5667 255.662 63.3177C256.245 55.9969 250.96 54.3476 247.012 54.0329L241.438 53.5885L241.283 55.8393ZM243.464 55.6521L246.838 55.921C251.192 56.2681 253.652 58.6311 253.276 63.3442C252.9 68.0572 250.13 69.5939 245.775 69.2467L242.402 68.9778L243.464 55.6521ZM267.617 58.8054L266.373 58.7062L267.769 55.6877L266.453 55.5828L264.841 58.5842L264.63 61.2397L267.405 61.461L267.617 58.8054ZM281.86 64.3228L273.439 63.6514L273.884 58.0771L284.29 58.9068L284.441 57.0168L271.857 56.0136L271.702 58.2643L270.697 70.8723L270.493 73.1193L283.077 74.1225L283.228 72.2325L272.821 71.4029L273.29 65.5175L281.712 66.1889L281.86 64.3228ZM286.497 74.3951L288.698 74.5706L288.854 72.3198L289.716 61.5061L289.798 59.8755L289.845 59.8793L294.464 75.0302L296.115 75.1618L303.052 60.9321L303.099 60.9359L302.922 62.5589L302.06 73.3726L301.857 75.6196L304.058 75.795L304.213 73.5443L305.218 60.9363L305.421 58.6893L302.239 58.4357L295.68 71.8529L295.633 71.849L291.282 57.5621L287.861 57.2894L287.706 59.5402L286.701 72.1482L286.497 74.3951ZM308.077 76.1154L309.273 76.2108L306.948 79.7091L308.359 79.8216L310.876 76.3386L311.087 73.683L308.288 73.4599L308.077 76.1154Z" fill="#F3EFEF"/>
<path d="M140.543 171.169L132.534 171.508L132.298 165.921L141.818 165.519L141.738 163.624L130.036 164.119L130.155 166.371L130.689 179.008L130.76 181.263L132.966 181.17L132.847 178.917L132.613 173.378L140.622 173.04L140.543 171.169ZM147.859 180.541L147.74 178.288L147.206 165.651L147.135 163.396L144.929 163.49L145.048 165.743L145.582 178.379L145.653 180.634L147.859 180.541ZM163.234 179.892L166.063 179.772L166.061 179.724L159.084 170.939L164.622 162.706L164.62 162.658L161.958 162.77L157.797 169.456L152.966 163.15L150.185 163.268L150.187 163.316L156.502 171.216L150.403 180.386L150.405 180.434L153.115 180.319L157.79 172.699L163.234 179.892ZM175.505 165.321L174.258 165.374L175.278 162.208L173.959 162.264L172.724 165.439L172.836 168.1L175.617 167.983L175.505 165.321ZM190.314 169.068L181.873 169.424L181.637 163.837L192.068 163.397L191.988 161.502L179.375 162.035L179.494 164.288L180.028 176.925L180.099 179.18L192.712 178.647L192.632 176.753L182.201 177.193L181.952 171.295L190.392 170.938L190.314 169.068ZM196.139 178.502L198.345 178.409L198.226 176.156L197.769 165.318L197.652 163.689L197.7 163.687L204.124 178.165L205.779 178.095L210.936 163.128L210.984 163.126L211.005 164.759L211.463 175.597L211.534 177.852L213.74 177.759L213.621 175.506L213.087 162.869L213.016 160.614L209.827 160.749L204.946 174.864L204.898 174.866L198.844 161.213L195.415 161.358L195.535 163.611L196.068 176.247L196.139 178.502ZM220.276 160.308L217.566 160.422L218.71 172.721L220.173 172.659L220.276 160.308ZM220.976 177.454L220.864 174.792L218.106 174.908L218.219 177.57L220.976 177.454Z" fill="#F3EFEF"/>
</svg>
