<svg width="113" height="46" viewBox="0 0 113 46" fill="none" xmlns="http://www.w3.org/2000/svg">
<g filter="url(#filter0_d)">
<rect width="102.594" height="32.8666" transform="matrix(0.998882 -0.047269 0.0276581 0.999617 4.70947 4.84949)" fill="#0B0B0B"/>
<rect width="102.594" height="32.8666" transform="matrix(0.998882 -0.047269 0.0276581 0.999617 4.70947 4.84949)" stroke="black"/>
<path d="M22.6346 26.5616L24.0853 26.5003L26.8525 17.7958L25.6296 17.8474L23.3759 25.6295L23.3519 25.6305L20.3183 18.0717L19.0235 18.1264L22.6346 26.5616ZM32.068 26.3914C34.7536 26.278 36.1902 24.1755 36.0854 21.6937C35.9811 19.2239 34.3723 17.2501 31.6867 17.3635C29.0011 17.4769 27.5765 19.5788 27.6808 22.0486C27.7856 24.5304 29.3824 26.5048 32.068 26.3914ZM32.0275 25.4323C30.349 25.5032 28.953 24.301 28.8558 21.999C28.7591 19.7091 30.0487 18.3935 31.7272 18.3226C33.4177 18.2512 34.8017 19.4539 34.8984 21.7439C34.9956 24.0458 33.718 25.3609 32.0275 25.4323ZM43.9109 25.6631L43.8709 24.7159L39.1112 24.9169L38.8368 18.4187L38.8012 17.2912L37.6981 17.3378L37.7577 18.4643L38.0245 24.7827L38.0601 25.9102L43.9109 25.6631ZM45.7779 16.9966L44.6509 17.0442L44.711 18.1827L44.8912 22.4509C44.9333 23.446 45.1365 24.2782 45.8238 24.9097C46.3861 25.4265 47.2885 25.7487 48.5234 25.6965C49.7583 25.6444 50.6303 25.2472 51.1471 24.6849C51.7666 23.9982 51.911 23.1513 51.869 22.1562L51.6888 17.888L51.6527 16.7485L50.5257 16.7961L50.5858 17.9346L50.7726 22.3587C50.7994 22.9941 50.6793 23.5637 50.2659 24.0135C49.8985 24.4134 49.2982 24.7029 48.4829 24.7374C47.6556 24.7723 47.045 24.5339 46.6452 24.1664C46.1833 23.7535 46.0277 23.1956 46.0008 22.5602L45.814 18.1361L45.7779 16.9966ZM59.8256 17.5324L60.0292 22.3521L60.085 23.1064L60.0611 23.1074L54.8744 16.6125L53.8673 16.655L53.9269 17.7815L54.1937 24.0999L54.2293 25.2274L55.3323 25.1808L55.2728 24.0543L55.0677 19.1986L55.0118 18.4443L55.0358 18.4433L60.224 24.9742L61.2311 24.9317L61.1715 23.8052L60.9047 17.4868L60.8691 16.3593L59.7661 16.4059L59.8256 17.5324ZM69.1621 16.958L69.1221 16.0108L62.3602 16.2964L62.4002 17.2435L65.2416 17.1235L65.516 23.6217L65.5516 24.7492L66.6546 24.7027L66.5951 23.5762L66.3207 17.078L69.1621 16.958ZM76.0794 19.4644L71.8592 19.6426L71.7412 16.8491L76.9566 16.6288L76.9166 15.6817L70.6102 15.948L70.6698 17.0745L70.9366 23.3928L70.9722 24.5203L77.2786 24.254L77.2386 23.3069L72.0232 23.5271L71.8987 20.5777L76.1189 20.3995L76.0794 19.4644ZM84.0996 19.1257L79.8794 19.3039L79.7614 16.5104L84.9768 16.2901L84.9368 15.343L78.6304 15.6093L78.69 16.7358L78.9568 23.0542L78.9924 24.1817L85.2988 23.9153L85.2588 22.9682L80.0434 23.1884L79.9189 20.2391L84.1391 20.0608L84.0996 19.1257ZM93.8705 23.5534L93.8695 23.5294L91.4541 20.0882C92.4991 19.8039 93.5508 19.1109 93.4844 17.5403C93.3872 15.2384 91.3864 15.0706 90.1635 15.1223L86.6506 15.2706L86.7102 16.3971L86.977 22.7155L87.0126 23.843L88.1276 23.7959L88.068 22.6694L87.9698 20.3435L90.3437 20.2432L92.4797 23.6121L93.8705 23.5534ZM87.7936 16.1712L89.8318 16.0851C90.9108 16.0396 92.2302 15.9958 92.298 17.6024C92.3613 19.1011 91.047 19.2647 89.968 19.3102L87.9298 19.3963L87.7936 16.1712Z" fill="white"/>
</g>
<defs>
<filter id="filter0_d" x="0.709473" y="0" width="111.389" height="45.7035" filterUnits="userSpaceOnUse" color-interpolation-filters="sRGB">
<feFlood flood-opacity="0" result="BackgroundImageFix"/>
<feColorMatrix in="SourceAlpha" type="matrix" values="0 0 0 0 0 0 0 0 0 0 0 0 0 0 0 0 0 0 127 0"/>
<feOffset dy="4"/>
<feGaussianBlur stdDeviation="2"/>
<feColorMatrix type="matrix" values="0 0 0 0 0 0 0 0 0 0 0 0 0 0 0 0 0 0 0.25 0"/>
<feBlend mode="normal" in2="BackgroundImageFix" result="effect1_dropShadow"/>
<feBlend mode="normal" in="SourceGraphic" in2="effect1_dropShadow" result="shape"/>
</filter>
</defs>
</svg>
