<svg width="352" height="100" viewBox="0 0 352 100" fill="none" xmlns="http://www.w3.org/2000/svg">
<rect width="230.312" height="89.1369" transform="matrix(0.998882 -0.047269 0.0276581 0.999617 59.5195 10.8866)" fill="#0B0B0B"/>
<rect width="230.312" height="89.1369" transform="matrix(0.998882 -0.047269 0.0276581 0.999617 59.5195 10.8866)" stroke="black"/>
<path d="M107.402 61.2496L110.304 61.1271L115.838 43.7181L113.392 43.8214L108.885 59.3854L108.837 59.3874L102.77 44.2699L100.18 44.3793L107.402 61.2496ZM126.269 60.9093C131.64 60.6825 134.514 56.4775 134.304 51.5139C134.095 46.5743 130.878 42.6266 125.507 42.8534C120.136 43.0802 117.286 47.2841 117.495 52.2237C117.705 57.1873 120.898 61.1361 126.269 60.9093ZM126.188 58.991C122.831 59.1328 120.039 56.7284 119.845 52.1245C119.651 47.5446 122.231 44.9134 125.588 44.7717C128.969 44.6289 131.737 47.0342 131.93 51.6142C132.125 56.2181 129.569 58.8482 126.188 58.991ZM149.955 59.4527L149.875 57.5583L140.356 57.9603L139.807 44.9639L139.736 42.7089L137.53 42.8021L137.649 45.0551L138.182 57.6918L138.254 59.9468L149.955 59.4527ZM153.689 42.1197L151.435 42.2149L151.555 44.4918L151.916 53.0282C152 55.0184 152.406 56.6828 153.781 57.9459C154.905 58.9794 156.71 59.6238 159.18 59.5195C161.65 59.4152 163.394 58.6209 164.427 57.4963C165.667 56.1228 165.955 54.4291 165.871 52.4389L165.511 43.9025L165.439 41.6235L163.185 41.7187L163.305 43.9956L163.678 52.8438C163.732 54.1146 163.492 55.2538 162.665 56.1535C161.93 56.9532 160.73 57.5324 159.099 57.6012C157.445 57.6711 156.223 57.1942 155.424 56.4593C154.5 55.6335 154.189 54.5176 154.135 53.2468L153.761 44.3987L153.689 42.1197ZM181.785 43.1913L182.192 52.8307L182.303 54.3393L182.255 54.3413L171.882 41.3514L169.868 41.4365L169.987 43.6894L170.521 56.3262L170.592 58.5812L172.798 58.488L172.679 56.235L172.269 46.5237L172.157 45.0151L172.205 45.013L182.581 58.0749L184.595 57.9898L184.476 55.7369L183.943 43.1001L183.871 40.8451L181.665 40.9383L181.785 43.1913ZM200.458 42.0424L200.378 40.1481L186.854 40.7192L186.934 42.6135L192.616 42.3735L193.165 55.3699L193.237 57.6249L195.443 57.5318L195.323 55.2788L194.775 42.2824L200.458 42.0424ZM214.292 47.0552L205.852 47.4116L205.616 41.8246L216.046 41.3841L215.966 39.4898L203.354 40.0224L203.473 42.2754L204.006 54.9121L204.078 57.1671L216.69 56.6345L216.61 54.7402L206.18 55.1807L205.931 49.2819L214.371 48.9255L214.292 47.0552ZM230.333 46.3778L221.892 46.7342L221.656 41.1472L232.087 40.7067L232.007 38.8124L219.394 39.345L219.513 41.598L220.047 54.2348L220.118 56.4898L232.731 55.9571L232.651 54.0628L222.22 54.5033L221.971 48.6046L230.412 48.2481L230.333 46.3778ZM249.874 55.2332L249.872 55.1852L245.042 48.3029C247.131 47.7342 249.235 46.3483 249.102 43.2071C248.908 38.6032 244.906 38.2677 242.46 38.371L235.434 38.6677L235.554 40.9207L236.087 53.5574L236.158 55.8124L238.388 55.7182L238.269 53.4652L238.073 48.8134L242.821 48.6129L247.093 55.3507L249.874 55.2332ZM237.72 40.4688L241.797 40.2967C243.955 40.2056 246.594 40.1181 246.729 43.3313C246.856 46.3286 244.227 46.6558 242.069 46.7469L237.993 46.9191L237.72 40.4688Z" fill="#F3EFEF"/>
</svg>
